<?xml version="1.0" encoding="UTF-8"?>
<svg xmlns="http://www.w3.org/2000/svg" xmlns:xlink="http://www.w3.org/1999/xlink" width="102.400002pt" height="102.400002pt" viewBox="0 0 102.400002 102.400002" version="1.1">
<g id="surface1">
<path style=" stroke:none;fill-rule:nonzero;fill:rgb(82%,82%,82%);fill-opacity:1;" d="M 85.921875 40.71875 C 85.761719 37.199219 86.238281 34.078125 84.640625 31.441406 C 80.800781 24.878906 71.199219 21.039062 52 21.039062 L 52 21.601562 L 51.601562 21.601562 L 52 21.601562 L 52 21.039062 C 32.800781 21.039062 22.71875 24.878906 18.878906 31.519531 C 17.359375 34.238281 17.519531 37.28125 17.28125 40.800781 C 17.121094 43.601562 15.839844 46.558594 16.398438 49.761719 C 17.039062 53.921875 17.28125 58.078125 17.921875 61.921875 C 18.398438 65.039062 22.71875 67.679688 23.121094 70.640625 C 24.238281 78.800781 32.71875 82.558594 51.921875 82.558594 L 51.921875 83.199219 L 51.441406 83.199219 L 52 83.199219 L 52 82.558594 C 71.199219 82.558594 79.359375 78.800781 80.398438 70.640625 C 80.800781 67.601562 84.800781 65.039062 85.28125 61.921875 C 85.921875 58.078125 86.160156 53.921875 86.800781 49.761719 C 87.359375 46.558594 86.078125 43.519531 85.921875 40.71875 Z M 85.921875 40.71875 "/>
<path style=" stroke:none;fill-rule:nonzero;fill:rgb(70%,70%,70%);fill-opacity:1;" d="M 51.679688 43.601562 C 55.121094 43.679688 57.519531 45.839844 59.761719 47.839844 C 62.398438 50.160156 66.878906 51.761719 68.71875 53.761719 C 70.558594 55.761719 72.960938 57.761719 73.839844 60.878906 C 74.71875 64 74.960938 68 74.960938 69.039062 C 74.960938 70.078125 75.519531 69.839844 77.121094 69.039062 C 80.878906 67.199219 85.039062 62.238281 85.039062 62.238281 C 84.558594 65.359375 80.480469 68.160156 80.078125 71.121094 C 79.121094 79.28125 71.199219 83.199219 51.601562 83.199219 L 51.519531 83.199219 L 52 83.199219 "/>
<path style=" stroke:none;fill-rule:nonzero;fill:rgb(70%,70%,70%);fill-opacity:1;" d="M 64.320312 37.359375 C 65.039062 39.839844 67.601562 48.238281 62.640625 45.441406 C 62.640625 45.441406 64.71875 46.640625 66 51.199219 C 67.359375 55.761719 70.640625 56.320312 70.640625 56.320312 C 70.640625 56.320312 76 57.359375 80 53.921875 C 83.359375 51.039062 83.921875 45.921875 82.480469 42 C 81.039062 38.160156 78.480469 36.960938 74.71875 36.160156 C 70.960938 35.28125 63.441406 34.558594 64.320312 37.359375 Z M 64.320312 37.359375 "/>
<path style=" stroke:none;fill-rule:nonzero;fill:rgb(0%,0%,0%);fill-opacity:1;" d="M 80.878906 46.480469 C 80.878906 50.367188 77.726562 53.519531 73.839844 53.519531 C 69.953125 53.519531 66.800781 50.367188 66.800781 46.480469 C 66.800781 42.59375 69.953125 39.441406 73.839844 39.441406 C 77.726562 39.441406 80.878906 42.59375 80.878906 46.480469 Z M 80.878906 46.480469 "/>
<path style=" stroke:none;fill-rule:nonzero;fill:rgb(100%,100%,100%);fill-opacity:1;" d="M 73.839844 43.359375 C 73.839844 44.375 73.015625 45.199219 72 45.199219 C 70.984375 45.199219 70.160156 44.375 70.160156 43.359375 C 70.160156 42.34375 70.984375 41.519531 72 41.519531 C 73.015625 41.519531 73.839844 42.34375 73.839844 43.359375 Z M 73.839844 43.359375 "/>
<path style=" stroke:none;fill-rule:nonzero;fill:rgb(82%,82%,82%);fill-opacity:1;" d="M 63.121094 46.160156 C 63.121094 46.160156 69.441406 50.480469 72.878906 54.71875 C 76.320312 58.960938 76.238281 59.761719 76.238281 59.761719 L 73.761719 60.878906 C 73.761719 60.878906 70.238281 54.238281 65.921875 51.761719 C 61.519531 49.28125 61.039062 47.199219 61.039062 47.199219 Z M 63.121094 46.160156 "/>
<path style=" stroke:none;fill-rule:nonzero;fill:rgb(70%,70%,70%);fill-opacity:1;" d="M 51.921875 43.601562 C 48.480469 43.679688 45.921875 45.839844 43.601562 47.839844 C 40.960938 50.160156 36.320312 51.761719 34.480469 53.761719 C 32.640625 55.761719 30.160156 57.761719 29.28125 60.878906 C 28.398438 64 28.078125 68 28.078125 69.039062 C 28.078125 70.078125 28.238281 70.160156 25.921875 69.039062 C 22.160156 67.28125 18 62.238281 18 62.238281 C 18.480469 65.359375 22.558594 68.160156 22.960938 71.121094 C 24.078125 79.28125 32 83.199219 51.601562 83.199219 L 52 83.199219 "/>
<path style=" stroke:none;fill-rule:nonzero;fill:rgb(24%,24%,24%);fill-opacity:1;" d="M 70.480469 57.121094 C 66.640625 52.398438 60.480469 48 51.921875 48 L 51.839844 48 C 43.28125 48 37.121094 52.398438 33.28125 57.121094 C 29.28125 62 29.601562 63.921875 29.601562 68.558594 C 29.601562 85.359375 35.519531 80.558594 39.441406 82.640625 C 43.441406 84.640625 47.601562 84 51.839844 84 L 51.921875 84 C 56.238281 84 60.320312 84.558594 64.320312 82.558594 C 68.238281 80.558594 74.160156 85.519531 74.160156 68.71875 C 74.238281 64.078125 74.480469 62 70.480469 57.121094 Z M 70.480469 57.121094 "/>
<path style=" stroke:none;fill-rule:nonzero;fill:rgb(19%,19%,19%);fill-opacity:1;" d="M 51.519531 52.160156 C 51.519531 52.160156 50.960938 59.921875 49.839844 61.441406 L 51.921875 60.960938 Z M 51.519531 52.160156 "/>
<path style=" stroke:none;fill-rule:nonzero;fill:rgb(19%,19%,19%);fill-opacity:1;" d="M 52.078125 52.160156 C 52.078125 52.160156 52.640625 59.921875 53.761719 61.441406 L 51.679688 60.960938 Z M 52.078125 52.160156 "/>
<path style=" stroke:none;fill-rule:nonzero;fill:rgb(24%,24%,24%);fill-opacity:1;" d="M 45.359375 50.320312 C 44.558594 48.480469 47.441406 45.519531 52 45.441406 C 56.558594 45.441406 59.441406 48.398438 58.640625 50.320312 C 57.839844 52.238281 54.960938 52.800781 52 52.878906 C 49.121094 52.800781 46.160156 52.238281 45.359375 50.320312 Z M 45.359375 50.320312 "/>
<path style=" stroke:none;fill-rule:nonzero;fill:rgb(0%,0%,0%);fill-opacity:1;" d="M 52 52.160156 C 52 51.839844 54.71875 51.761719 56.160156 50.800781 C 56.160156 50.800781 53.199219 51.761719 52.558594 51.359375 C 51.921875 51.039062 51.761719 50.078125 51.761719 50.078125 C 51.761719 50.078125 51.519531 51.039062 51.039062 51.359375 C 50.480469 51.679688 47.121094 50.800781 47.121094 50.800781 C 47.121094 50.800781 51.601562 51.921875 51.601562 52.160156 C 51.601562 52.398438 51.519531 53.199219 51.519531 53.761719 C 51.519531 55.761719 51.519531 60.71875 51.839844 61.121094 C 52.320312 61.839844 52.160156 55.761719 52.160156 53.761719 C 52.078125 53.121094 52.078125 52.480469 52 52.160156 Z M 52 52.160156 "/>
<path style=" stroke:none;fill-rule:nonzero;fill:rgb(35%,35%,35%);fill-opacity:1;" d="M 52.160156 62.878906 C 53.519531 62.878906 55.921875 63.839844 58.078125 65.359375 C 56 63.039062 53.519531 61.441406 52.160156 61.441406 C 50.71875 61.441406 47.679688 63.199219 45.519531 65.761719 C 47.761719 64 50.640625 62.878906 52.160156 62.878906 Z M 52.160156 62.878906 "/>
<path style=" stroke:none;fill-rule:nonzero;fill:rgb(19%,19%,19%);fill-opacity:1;" d="M 51.601562 77.039062 C 48.558594 77.039062 45.601562 76.078125 42.878906 75.359375 C 42.320312 75.199219 41.761719 75.601562 41.199219 75.441406 C 36.160156 73.839844 32.078125 71.121094 29.601562 67.679688 L 29.601562 68.480469 C 29.601562 85.28125 35.519531 80.558594 39.441406 82.558594 C 43.441406 84.558594 47.601562 83.921875 51.839844 83.921875 L 51.921875 83.921875 C 56.238281 83.921875 60.320312 84.480469 64.320312 82.480469 C 68.238281 80.480469 74.160156 85.359375 74.160156 68.558594 C 74.160156 67.921875 74.160156 67.28125 74.238281 66.71875 C 71.921875 70.480469 67.679688 73.441406 62.398438 75.199219 C 61.921875 75.359375 60.800781 74.960938 60.320312 75.039062 C 57.441406 76 54.878906 77.039062 51.601562 77.039062 Z M 51.601562 77.039062 "/>
<path style=" stroke:none;fill-rule:nonzero;fill:rgb(19%,19%,19%);fill-opacity:1;" d="M 44 68 C 44 68 42 74 43.359375 76.640625 L 41.519531 75.839844 C 41.519531 75.839844 42.878906 69.761719 44 68 Z M 44 68 "/>
<path style=" stroke:none;fill-rule:nonzero;fill:rgb(19%,19%,19%);fill-opacity:1;" d="M 59.839844 68 C 59.839844 68 61.839844 74 60.480469 76.640625 L 62.320312 75.839844 C 62.320312 75.839844 60.878906 69.761719 59.839844 68 Z M 59.839844 68 "/>
<path style=" stroke:none;fill-rule:nonzero;fill:rgb(70%,70%,70%);fill-opacity:1;" d="M 38.878906 37.359375 C 38.160156 39.839844 35.601562 48.238281 40.558594 45.441406 C 40.558594 45.441406 38.480469 46.640625 37.199219 51.199219 C 35.921875 55.761719 32.558594 56.320312 32.558594 56.320312 C 32.558594 56.320312 27.199219 57.359375 23.199219 53.921875 C 19.839844 51.039062 19.28125 45.921875 20.71875 42 C 22.160156 38.078125 24.71875 36.960938 28.480469 36.160156 C 32.238281 35.28125 39.679688 34.558594 38.878906 37.359375 Z M 38.878906 37.359375 "/>
<path style=" stroke:none;fill-rule:nonzero;fill:rgb(0%,0%,0%);fill-opacity:1;" d="M 51.921875 61.441406 C 54.078125 61.441406 60.800781 66.078125 60.878906 71.761719 L 60.878906 71.441406 C 60.878906 65.519531 55.441406 60.800781 51.921875 60.800781 C 48.398438 60.800781 42.960938 65.601562 42.960938 71.441406 L 42.960938 71.761719 C 43.039062 66.078125 49.761719 61.441406 51.921875 61.441406 Z M 51.921875 61.441406 "/>
<path style=" stroke:none;fill-rule:nonzero;fill:rgb(12%,12%,12%);fill-opacity:1;" d="M 53.984375 49.042969 C 54.152344 49.683594 54.007812 50.273438 53.667969 50.363281 C 53.324219 50.453125 52.914062 50.003906 52.746094 49.363281 C 52.582031 48.71875 52.726562 48.128906 53.066406 48.039062 C 53.410156 47.953125 53.820312 48.398438 53.984375 49.042969 Z M 53.984375 49.042969 "/>
<path style=" stroke:none;fill-rule:nonzero;fill:rgb(12%,12%,12%);fill-opacity:1;" d="M 50.519531 49.394531 C 50.324219 50.027344 49.890625 50.457031 49.554688 50.351562 C 49.214844 50.246094 49.101562 49.648438 49.296875 49.015625 C 49.496094 48.382812 49.929688 47.953125 50.265625 48.058594 C 50.601562 48.164062 50.71875 48.761719 50.519531 49.394531 Z M 50.519531 49.394531 "/>
<path style=" stroke:none;fill-rule:nonzero;fill:rgb(0%,0%,0%);fill-opacity:1;" d="M 36.800781 46.480469 C 36.800781 50.367188 33.648438 53.519531 29.761719 53.519531 C 25.871094 53.519531 22.71875 50.367188 22.71875 46.480469 C 22.71875 42.59375 25.871094 39.441406 29.761719 39.441406 C 33.648438 39.441406 36.800781 42.59375 36.800781 46.480469 Z M 36.800781 46.480469 "/>
<path style=" stroke:none;fill-rule:nonzero;fill:rgb(100%,100%,100%);fill-opacity:1;" d="M 33.441406 43.359375 C 33.441406 44.375 32.617188 45.199219 31.601562 45.199219 C 30.582031 45.199219 29.761719 44.375 29.761719 43.359375 C 29.761719 42.34375 30.582031 41.519531 31.601562 41.519531 C 32.617188 41.519531 33.441406 42.34375 33.441406 43.359375 Z M 33.441406 43.359375 "/>
<path style=" stroke:none;fill-rule:nonzero;fill:rgb(35%,35%,35%);fill-opacity:1;" d="M 54 46.558594 C 54 46.480469 52.160156 47.359375 51.679688 47.441406 C 51.199219 47.359375 49.359375 46.480469 49.359375 46.558594 Z M 54 46.558594 "/>
<path style=" stroke:none;fill-rule:nonzero;fill:rgb(82%,82%,82%);fill-opacity:1;" d="M 40 46.160156 C 40 46.160156 33.679688 50.480469 30.238281 54.71875 C 26.800781 58.960938 26.878906 59.761719 26.878906 59.761719 L 29.359375 60.878906 C 29.359375 60.878906 32.878906 54.238281 37.199219 51.761719 C 41.519531 49.28125 42.078125 47.199219 42.078125 47.199219 Z M 40 46.160156 "/>
<path style=" stroke:none;fill-rule:nonzero;fill:rgb(70%,70%,70%);fill-opacity:1;" d="M 26.160156 33.359375 C 26.160156 33.359375 24 39.28125 19.199219 41.761719 C 19.199219 41.761719 26.71875 40.878906 26.160156 33.359375 Z M 26.160156 33.359375 "/>
<path style=" stroke:none;fill-rule:nonzero;fill:rgb(70%,70%,70%);fill-opacity:1;" d="M 76.640625 33.359375 C 76.640625 33.359375 78.800781 39.28125 83.601562 41.761719 C 83.601562 41.761719 76.078125 40.878906 76.640625 33.359375 Z M 76.640625 33.359375 "/>
<path style=" stroke:none;fill-rule:nonzero;fill:rgb(70%,70%,70%);fill-opacity:1;" d="M 62.960938 44.398438 C 62.960938 44.398438 58.238281 39.441406 51.921875 39.28125 L 52.078125 39.28125 C 45.679688 39.441406 41.039062 44.398438 41.039062 44.398438 C 46.558594 40.558594 51.28125 40.640625 52.078125 40.640625 C 52 40.640625 57.441406 40.558594 62.960938 44.398438 Z M 62.960938 44.398438 "/>
<path style=" stroke:none;fill-rule:nonzero;fill:rgb(70%,70%,70%);fill-opacity:1;" d="M 57.441406 34 C 57.441406 34 55.039062 30.640625 51.839844 30.558594 L 52 30.558594 C 49.601562 30.640625 46.480469 34 46.480469 34 C 49.199219 31.359375 52 31.441406 52 31.441406 C 52 31.441406 54.640625 31.359375 57.441406 34 Z M 57.441406 34 "/>
<path style=" stroke:none;fill-rule:nonzero;fill:rgb(70%,70%,70%);fill-opacity:1;" d="M 29.761719 58.558594 C 29.761719 58.558594 26 60.398438 23.28125 59.28125 L 23.199219 59.28125 C 20.800781 57.921875 19.601562 53.839844 19.601562 53.839844 C 19.601562 53.839844 22 61.039062 29.761719 58.558594 Z M 29.761719 58.558594 "/>
<path style=" stroke:none;fill-rule:nonzero;fill:rgb(70%,70%,70%);fill-opacity:1;" d="M 73.601562 58.558594 C 73.601562 58.558594 77.359375 60.398438 80.078125 59.28125 C 83.28125 57.921875 83.761719 53.839844 83.761719 53.839844 C 83.761719 53.839844 81.359375 61.039062 73.601562 58.558594 Z M 73.601562 58.558594 "/>
<path style=" stroke:none;fill-rule:nonzero;fill:rgb(70%,70%,70%);fill-opacity:1;" d="M 34.078125 32.960938 C 36.160156 32.558594 39.601562 32.480469 42.320312 33.359375 C 45.761719 34.558594 42.960938 38.960938 43.679688 39.199219 C 44.398438 39.441406 45.359375 36.160156 51.761719 36.480469 C 58.238281 36.800781 58.960938 39.679688 59.839844 39.199219 C 60.71875 38.71875 58.960938 31.199219 68.640625 32.960938 C 68.640625 32.960938 58.480469 30.238281 58.960938 37.601562 C 58.960938 37.601562 53.121094 33.121094 44.960938 37.121094 C 45.039062 37.121094 47.121094 30.238281 34.078125 32.960938 Z M 34.078125 32.960938 "/>
<path style=" stroke:none;fill-rule:nonzero;fill:rgb(70%,70%,70%);fill-opacity:1;" d="M 69.519531 32.960938 C 69.679688 32.960938 69.761719 33.039062 69.839844 33.039062 C 69.921875 33.039062 69.761719 32.960938 69.519531 32.960938 Z M 69.519531 32.960938 "/>
<path style=" stroke:none;fill-rule:nonzero;fill:rgb(70%,70%,70%);fill-opacity:1;" d="M 31.28125 23.121094 C 31.28125 23.121094 22.640625 34 21.359375 38.160156 C 20.078125 42.398438 19.121094 59.761719 18 62.238281 L 14 45.121094 L 21.359375 27.28125 Z M 31.28125 23.121094 "/>
<path style=" stroke:none;fill-rule:nonzero;fill:rgb(70%,70%,70%);fill-opacity:1;" d="M 71.921875 23.121094 C 71.921875 23.121094 80.558594 34 81.839844 38.160156 C 83.121094 42.398438 84.078125 59.761719 85.199219 62.238281 L 89.199219 45.121094 L 81.839844 27.28125 Z M 71.921875 23.121094 "/>
<path style=" stroke:none;fill-rule:nonzero;fill:rgb(24%,24%,24%);fill-opacity:1;" d="M 71.519531 23.121094 C 71.519531 23.121094 80.800781 30.878906 83.519531 39.839844 C 86.238281 48.800781 85.121094 59.679688 87.199219 61.039062 C 90.160156 62.960938 93.519531 51.519531 94.640625 50.320312 C 96.398438 48.398438 102.238281 43.519531 102.640625 42.640625 C 103.039062 41.761719 90.800781 28.398438 85.441406 25.761719 C 78.960938 22.71875 70.960938 22.480469 71.519531 23.121094 Z M 71.519531 23.121094 "/>
<path style=" stroke:none;fill-rule:nonzero;fill:rgb(19%,19%,19%);fill-opacity:1;" d="M 79.441406 27.921875 C 79.441406 27.921875 90.398438 41.921875 90.238281 59.359375 L 94.640625 50.398438 C 94.558594 50.398438 90.71875 38.960938 79.441406 27.921875 Z M 79.441406 27.921875 "/>
<path style=" stroke:none;fill-rule:nonzero;fill:rgb(24%,24%,24%);fill-opacity:1;" d="M 31.28125 23.121094 C 31.28125 23.121094 22 30.878906 19.28125 39.839844 C 16.558594 48.800781 17.679688 59.679688 15.601562 61.039062 C 12.640625 62.960938 9.28125 51.519531 8.160156 50.320312 C 6.398438 48.398438 0.558594 43.519531 0.160156 42.640625 C -0.238281 41.761719 12 28.398438 17.359375 25.761719 C 23.839844 22.71875 31.839844 22.480469 31.28125 23.121094 Z M 31.28125 23.121094 "/>
<path style=" stroke:none;fill-rule:nonzero;fill:rgb(19%,19%,19%);fill-opacity:1;" d="M 23.359375 27.921875 C 23.359375 27.921875 12.398438 41.921875 12.558594 59.359375 L 8.238281 50.398438 C 8.238281 50.398438 12.078125 38.960938 23.359375 27.921875 Z M 23.359375 27.921875 "/>
<path style=" stroke:none;fill-rule:nonzero;fill:rgb(70%,70%,70%);fill-opacity:1;" d="M 17.441406 59.679688 C 17.441406 59.679688 18.238281 64 19.519531 65.359375 C 20.800781 66.71875 19.921875 64.320312 19.921875 64.320312 C 19.921875 64.320312 18.558594 63.601562 18.800781 58.078125 C 19.039062 52.558594 17.441406 59.679688 17.441406 59.679688 Z M 17.441406 59.679688 "/>
<path style=" stroke:none;fill-rule:nonzero;fill:rgb(70%,70%,70%);fill-opacity:1;" d="M 85.679688 59.679688 C 85.679688 59.679688 84.878906 64 83.601562 65.359375 C 82.320312 66.71875 83.199219 64.320312 83.199219 64.320312 C 83.199219 64.320312 84.558594 63.601562 84.320312 58.078125 C 84.078125 52.558594 85.679688 59.679688 85.679688 59.679688 Z M 85.679688 59.679688 "/>
<path style=" stroke:none;fill-rule:nonzero;fill:rgb(19%,19%,19%);fill-opacity:1;" d="M 44.238281 56.398438 C 44.238281 56.753906 43.953125 57.039062 43.601562 57.039062 C 43.246094 57.039062 42.960938 56.753906 42.960938 56.398438 C 42.960938 56.046875 43.246094 55.761719 43.601562 55.761719 C 43.953125 55.761719 44.238281 56.046875 44.238281 56.398438 Z M 44.238281 56.398438 "/>
<path style=" stroke:none;fill-rule:nonzero;fill:rgb(19%,19%,19%);fill-opacity:1;" d="M 40.558594 60.238281 C 40.558594 60.59375 40.273438 60.878906 39.921875 60.878906 C 39.566406 60.878906 39.28125 60.59375 39.28125 60.238281 C 39.28125 59.886719 39.566406 59.601562 39.921875 59.601562 C 40.273438 59.601562 40.558594 59.886719 40.558594 60.238281 Z M 40.558594 60.238281 "/>
<path style=" stroke:none;fill-rule:nonzero;fill:rgb(19%,19%,19%);fill-opacity:1;" d="M 39.359375 56.398438 C 39.359375 56.753906 39.074219 57.039062 38.71875 57.039062 C 38.367188 57.039062 38.078125 56.753906 38.078125 56.398438 C 38.078125 56.046875 38.367188 55.761719 38.71875 55.761719 C 39.074219 55.761719 39.359375 56.046875 39.359375 56.398438 Z M 39.359375 56.398438 "/>
<path style=" stroke:none;fill-rule:nonzero;fill:rgb(19%,19%,19%);fill-opacity:1;" d="M 59.839844 56.398438 C 59.839844 56.753906 59.554688 57.039062 59.199219 57.039062 C 58.847656 57.039062 58.558594 56.753906 58.558594 56.398438 C 58.558594 56.046875 58.847656 55.761719 59.199219 55.761719 C 59.554688 55.761719 59.839844 56.046875 59.839844 56.398438 Z M 59.839844 56.398438 "/>
<path style=" stroke:none;fill-rule:nonzero;fill:rgb(19%,19%,19%);fill-opacity:1;" d="M 63.519531 60.238281 C 63.519531 60.59375 63.234375 60.878906 62.878906 60.878906 C 62.527344 60.878906 62.238281 60.59375 62.238281 60.238281 C 62.238281 59.886719 62.527344 59.601562 62.878906 59.601562 C 63.234375 59.601562 63.519531 59.886719 63.519531 60.238281 Z M 63.519531 60.238281 "/>
<path style=" stroke:none;fill-rule:nonzero;fill:rgb(19%,19%,19%);fill-opacity:1;" d="M 64.71875 56.398438 C 64.71875 56.753906 64.433594 57.039062 64.078125 57.039062 C 63.726562 57.039062 63.441406 56.753906 63.441406 56.398438 C 63.441406 56.046875 63.726562 55.761719 64.078125 55.761719 C 64.433594 55.761719 64.71875 56.046875 64.71875 56.398438 Z M 64.71875 56.398438 "/>
</g>
</svg>
